<svg fill="none" height="50" viewBox="0 0 50 50" width="50" xmlns="http://www.w3.org/2000/svg"><circle cx="25" cy="25" fill="#fff" r="25"/><path d="m38.1667 40-10.9584-10.9583c-.8333.7222-1.8055 1.2847-2.9166 1.6875-1.1111.4027-2.2917.6041-3.5417.6041-3 0-5.5417-1.0416-7.625-3.125-2.0833-2.0833-3.125-4.5972-3.125-7.5416 0-2.9445 1.0417-5.4584 3.125-7.5417s4.6111-3.125 7.5833-3.125c2.9445 0 5.4514 1.0417 7.5209 3.125 2.0694 2.0833 3.1041 4.5972 3.1041 7.5417 0 1.1944-.1944 2.3472-.5833 3.4583s-.9722 2.1528-1.75 3.125l11 10.9167zm-17.4584-11.1667c2.25 0 4.1667-.7986 5.75-2.3958 1.5834-1.5972 2.375-3.5208 2.375-5.7708s-.7916-4.1736-2.375-5.7709c-1.5833-1.5972-3.5-2.3958-5.75-2.3958-2.2777 0-4.2152.7986-5.8125 2.3958-1.5972 1.5973-2.3958 3.5209-2.3958 5.7709s.7986 4.1736 2.3958 5.7708c1.5973 1.5972 3.5348 2.3958 5.8125 2.3958zm-1.2916-3.5416v-3.4167h-3.4167v-2.5h3.4167v-3.375h2.5v3.375h3.375v2.5h-3.375v3.4167z" fill="#000"/></svg>